<svg width="96" height="96" viewBox="0 0 96 96" fill="none" xmlns="http://www.w3.org/2000/svg">
<g clip-path="url(#clip0_3576_20)">
<path d="M53 63C55.02 64.318 60.757 65.091 66 65.042" stroke="#FCC800" stroke-width="4" stroke-miterlimit="10" stroke-linecap="round" stroke-linejoin="round"/>
<path d="M43 63C40.98 64.318 35.243 65.091 30 65.042" stroke="#FCC800" stroke-width="4" stroke-miterlimit="10" stroke-linecap="round" stroke-linejoin="round"/>
<path d="M44 20V2H52V35H44V30" stroke="#FCC800" stroke-width="4" stroke-miterlimit="10" stroke-linecap="round" stroke-linejoin="round"/>
<path d="M43 62.75C43 59.989 45.239 58 48 58C50.761 58 53 59.989 53 62.75V68H43V62.75Z" stroke="#FCC800" stroke-width="4" stroke-miterlimit="10" stroke-linecap="round" stroke-linejoin="round"/>
<path d="M33.1198 87.1209C34.2913 85.9494 34.2913 84.0499 33.1198 82.8783C31.9482 81.7068 30.0487 81.7068 28.8772 82.8783C27.7056 84.0499 27.7056 85.9494 28.8772 87.1209C30.0487 88.2925 31.9482 88.2925 33.1198 87.1209Z" stroke="#FCC800" stroke-width="4" stroke-miterlimit="10" stroke-linecap="round" stroke-linejoin="round"/>
<path d="M67.1198 87.1212C68.2913 85.9496 68.2913 84.0501 67.1198 82.8786C65.9482 81.707 64.0487 81.707 62.8772 82.8786C61.7056 84.0501 61.7056 85.9496 62.8772 87.1212C64.0487 88.2927 65.9482 88.2927 67.1198 87.1212Z" stroke="#FCC800" stroke-width="4" stroke-miterlimit="10" stroke-linecap="round" stroke-linejoin="round"/>
<path d="M34 85H62" stroke="#FCC800" stroke-width="4" stroke-miterlimit="10" stroke-linecap="round" stroke-linejoin="round"/>
<path d="M32.8281 82.172L43.0001 67" stroke="#FCC800" stroke-width="4" stroke-miterlimit="10" stroke-linecap="round" stroke-linejoin="round"/>
<path d="M63.172 82.172L53 67" stroke="#FCC800" stroke-width="4" stroke-miterlimit="10" stroke-linecap="round" stroke-linejoin="round"/>
<path d="M48 68V85" stroke="#FCC800" stroke-width="4" stroke-miterlimit="10" stroke-linecap="round" stroke-linejoin="round"/>
<path d="M42 69V84" stroke="#FCC800" stroke-width="4" stroke-miterlimit="10" stroke-linecap="round" stroke-linejoin="round"/>
<path d="M54 69V85" stroke="#FCC800" stroke-width="4" stroke-miterlimit="10" stroke-linecap="round" stroke-linejoin="round"/>
<path d="M60 78V85" stroke="#FCC800" stroke-width="4" stroke-miterlimit="10" stroke-linecap="round" stroke-linejoin="round"/>
<path d="M36 78V85" stroke="#FCC800" stroke-width="4" stroke-miterlimit="10" stroke-linecap="round" stroke-linejoin="round"/>
<path d="M41.8808 43.278C42.9498 44.455 42.9178 48.611 42.9178 48.611C42.9178 48.611 43.0608 54.006 41.8808 54.787C38.1688 57.244 24.3008 57.965 21.1668 54.787C18.0328 51.609 21.3658 46.065 25.1798 43.278C29.2948 40.27 38.8788 39.972 41.8808 43.278Z" stroke="#FCC800" stroke-width="4" stroke-miterlimit="10" stroke-linecap="round" stroke-linejoin="round"/>
<path d="M53.9682 43.278C52.8992 44.455 52.9312 48.611 52.9312 48.611C52.9312 48.611 52.7882 54.006 53.9682 54.787C57.6802 57.244 71.5482 57.965 74.6822 54.787C77.8162 51.609 74.4832 46.065 70.6692 43.278C66.5542 40.27 56.9712 39.972 53.9682 43.278Z" stroke="#FCC800" stroke-width="4" stroke-miterlimit="10" stroke-linecap="round" stroke-linejoin="round"/>
<path d="M67.1211 82.879L74.8331 69.586" stroke="#FCC800" stroke-width="4" stroke-miterlimit="10" stroke-linecap="round"/>
<path d="M26.9102 19.433C31.2202 14.769 37.2862 11.597 44.0002 10.629" stroke="#FCC800" stroke-width="4" stroke-miterlimit="10" stroke-linecap="round"/>
<path d="M21.873 27.2271C22.272 26.2841 22.723 25.3691 23.222 24.4871" stroke="#FCC800" stroke-width="4" stroke-miterlimit="10" stroke-linecap="round"/>
<path d="M28.878 82.879L21.166 69.586" stroke="#FCC800" stroke-width="4" stroke-miterlimit="10" stroke-linecap="round"/>
<path d="M76.0977 82.957C82.9997 82 91.9027 78.837 93.2247 78.149" stroke="#FCC800" stroke-width="4" stroke-miterlimit="10" stroke-linecap="round"/>
<path d="M20.2244 82.957C13.3224 82 4.09739 78.762 2.77539 78.074" stroke="#FCC800" stroke-width="4" stroke-miterlimit="10" stroke-linecap="round"/>
<path d="M83 45C83 45 74.667 26.833 52 35" stroke="#FCC800" stroke-width="4" stroke-miterlimit="10" stroke-linecap="round"/>
<path d="M13 45C13 45 21.333 26.833 44 35" stroke="#FCC800" stroke-width="4" stroke-miterlimit="10" stroke-linecap="round"/>
<path d="M43.9997 4.23096C26.5677 6.23396 12.9997 21.037 12.9997 39V45L3.36373 76.343C1.58273 81.125 1.03073 85.917 4.37373 87.657C14.1567 92.749 36.8927 94 47.9947 94C59.0967 94 81.8307 92.749 91.6137 87.657C94.9567 85.917 94.3957 81.125 92.6147 76.343L82.9587 45L82.9997 40.031L82.9587 39C82.9587 21.037 69.4267 6.23396 51.9997 4.23096" stroke="#FCC800" stroke-width="4" stroke-miterlimit="10" stroke-linecap="round"/>
</g>
<defs>
<clipPath id="clip0_3576_20">
<rect width="96" height="96" fill="white"/>
</clipPath>
</defs>
</svg>
